<svg width="13" height="12" viewBox="0 0 13 12" fill="none" xmlns="http://www.w3.org/2000/svg">
<path fill-rule="evenodd" clip-rule="evenodd" d="M2.59297 0.0316611C2.30275 0.0947893 2.24747 0.138172 1.49146 0.896156C0.727659 1.66195 0.692202 1.7077 0.589208 2.0606C0.509595 2.33338 0.498807 2.87285 0.5655 3.24468C0.889677 5.05167 2.41003 7.35824 4.52991 9.25917C6.37756 10.916 8.25633 11.9169 9.66729 11.9961C10.11 12.0209 10.5187 11.9279 10.8119 11.7357C10.9122 11.6699 11.196 11.4029 11.6151 10.9803C12.2993 10.2902 12.3509 10.2238 12.4418 9.91789C12.4877 9.76309 12.4906 9.45552 12.4477 9.29486C12.3729 9.01564 12.3304 8.9643 11.392 8.0212C10.9003 7.52706 10.4426 7.07988 10.3748 7.02747C9.93814 6.68993 9.29438 6.73603 8.90546 7.13269C8.78769 7.25281 8.74239 7.32313 8.66101 7.51205C8.60607 7.6396 8.53262 7.78262 8.49775 7.82985C8.25706 8.15602 7.79305 8.34442 7.39913 8.27594C6.91429 8.19166 6.21238 7.78492 5.63076 7.25119C4.90843 6.58834 4.41674 5.86521 4.22586 5.18494C4.06883 4.62539 4.34855 4.08204 4.91002 3.85587C5.21462 3.73315 5.36756 3.61749 5.5047 3.40618C5.73631 3.04929 5.73981 2.55022 5.51323 2.18942C5.42963 2.05631 3.81264 0.420186 3.61535 0.269095C3.45807 0.148631 3.25164 0.0558618 3.06582 0.0220934C2.88978 -0.00989282 2.77309 -0.0075244 2.59297 0.0316611Z" fill="#62A1FF"/>
</svg>
