<svg width="12" height="13" viewBox="0 0 12 13" fill="none" xmlns="http://www.w3.org/2000/svg">
<path fill-rule="evenodd" clip-rule="evenodd" d="M0.246094 0.0472863C0.134578 0.102767 0.0846093 0.15939 0.0360468 0.285281C0.0048984 0.366052 0 0.595592 0 1.97123C0 3.54213 0.000679649 3.56521 0.0497109 3.67495C0.103242 3.79475 0.222211 3.89461 0.343734 3.92176C0.527648 3.96282 0.764883 3.79764 0.817617 3.59185C0.834399 3.52639 0.843539 3.15171 0.843609 2.52629L0.84375 1.56169L2.20898 3.03943C3.15436 4.06268 3.60101 4.52918 3.66136 4.55627C3.77576 4.60764 3.88092 4.60494 3.99609 4.54763C4.10761 4.49215 4.15758 4.43553 4.20614 4.30964C4.25187 4.19104 4.25184 4.08581 4.20607 3.96614C4.18106 3.90076 3.75047 3.41687 2.80596 2.39268L1.44195 0.913621L2.33231 0.913469C2.9096 0.913392 3.25545 0.903489 3.31587 0.885309C3.50583 0.828178 3.65829 0.571165 3.62039 0.371917C3.59534 0.240262 3.50316 0.111375 3.39258 0.0533804C3.29123 0.000235929 3.27061 -0.000475009 1.81486 8.3605e-05C0.433805 0.000616828 0.333867 0.00361287 0.246094 0.0472863ZM8.6055 0.0540153C8.4963 0.112568 8.40434 0.242014 8.37961 0.371917C8.34171 0.571165 8.49417 0.828178 8.68413 0.885309C8.74455 0.903489 9.0904 0.913392 9.66769 0.913469L10.5581 0.913621L9.19404 2.39268C8.24953 3.41687 7.81894 3.90076 7.79393 3.96614C7.74652 4.09008 7.749 4.20401 7.8019 4.32878C7.85311 4.4496 7.90538 4.50373 8.02158 4.55634C8.13105 4.60588 8.22818 4.60586 8.33864 4.55627C8.39899 4.52918 8.84564 4.06268 9.79102 3.03943L11.1562 1.56169L11.1564 2.52629C11.1565 3.15171 11.1656 3.52639 11.1824 3.59185C11.2351 3.79764 11.4724 3.96282 11.6563 3.92176C11.7778 3.89461 11.8968 3.79475 11.9503 3.67495C11.9993 3.56521 12 3.54213 12 1.97123C12 0.595592 11.9951 0.366052 11.964 0.285281C11.9154 0.15939 11.8654 0.102767 11.7539 0.0472863C11.6661 0.00361287 11.5662 0.000616814 10.1836 0.000108983C8.72062 -0.00042424 8.70609 5.82256e-05 8.6055 0.0540153ZM3.70312 8.38095C3.65801 8.40997 2.9962 9.10973 2.23242 9.936L0.84375 11.4383L0.843609 10.4735C0.843539 9.84789 0.834399 9.47316 0.817617 9.40768C0.764883 9.20188 0.527648 9.03671 0.343734 9.07777C0.222211 9.10491 0.103242 9.20478 0.0497109 9.32457C0.000656214 9.43437 -1.50176e-08 9.45671 0.00051561 11.0338C0.0010078 12.53 0.00377345 12.6383 0.0440859 12.7334C0.0952969 12.8542 0.147562 12.9083 0.263766 12.9609C0.33832 12.9947 0.550195 13 1.81997 13C3.26998 13 3.29128 12.9993 3.39258 12.9461C3.50316 12.8882 3.59534 12.7593 3.62039 12.6276C3.65829 12.4284 3.50583 12.1713 3.31587 12.1142C3.25545 12.096 2.9096 12.0861 2.33229 12.0861L1.44195 12.0859L2.83966 10.5688C3.60841 9.73432 4.25543 9.01264 4.27748 8.96503C4.3722 8.7605 4.27338 8.44747 4.0875 8.36335C3.97153 8.31084 3.79983 8.31871 3.70312 8.38095ZM7.91016 8.36381C7.82395 8.4053 7.74577 8.49473 7.71251 8.58987C7.67594 8.69441 7.68197 8.87712 7.72505 8.97036C7.74572 9.01505 8.39159 9.73432 9.16034 10.5688L10.5581 12.0859L9.66771 12.0861C9.0904 12.0861 8.74455 12.096 8.68413 12.1142C8.49417 12.1713 8.34171 12.4284 8.37961 12.6276C8.40466 12.7593 8.49684 12.8882 8.60742 12.9461C8.70877 12.9993 8.72939 13 10.1851 12.9994C11.5662 12.9989 11.6661 12.9959 11.7539 12.9522C11.8654 12.8968 11.9154 12.8401 11.964 12.7142C11.9951 12.6335 12 12.4039 12 11.0283C12 9.4574 11.9993 9.43431 11.9503 9.32457C11.8968 9.20478 11.7778 9.10491 11.6563 9.07777C11.4724 9.03671 11.2351 9.20188 11.1824 9.40768C11.1656 9.47314 11.1565 9.84782 11.1564 10.4733L11.1562 11.4378L9.75586 9.92358C8.98563 9.09074 8.32172 8.39103 8.28047 8.36863C8.19012 8.31965 8.00684 8.31724 7.91016 8.36381Z" fill="#62A1FF"/>
</svg>
