<svg width="15" height="20" viewBox="0 0 15 20" fill="none" xmlns="http://www.w3.org/2000/svg">
<path fill-rule="evenodd" clip-rule="evenodd" d="M1.79103 0.03436C0.974634 0.189702 0.222375 0.93927 0.0487019 1.77047C-0.0156417 2.07849 -0.0165255 17.8357 0.047818 18.1871C0.203774 19.0395 0.969963 19.7986 1.83033 19.9531C2.17835 20.0156 12.6396 20.0156 12.9876 19.9531C13.8506 19.7981 14.6137 19.0421 14.7702 18.1871C14.8011 18.018 14.8152 16.0469 14.8148 11.9543C14.8141 5.31523 14.8302 5.70492 14.5335 5.14547C14.4 4.89373 14.0984 4.5695 12.2436 2.68384C10.8772 1.29465 10.0194 0.454525 9.86292 0.352215C9.72838 0.264288 9.49521 0.150595 9.34476 0.0996487C9.07123 0.00696888 9.07115 0.00696889 5.53633 0.000631807C3.42238 -0.0031621 1.91685 0.0103875 1.79103 0.03436ZM8.63783 3.1234L8.65041 4.92654L8.80212 5.23923C8.97549 5.59657 9.27234 5.91467 9.59448 6.0884C9.98584 6.2994 10.2015 6.31837 11.9122 6.29231L13.4688 6.26863V12.0757C13.4688 16.5498 13.4569 17.9223 13.417 18.0545C13.3503 18.276 13.0773 18.5464 12.8537 18.6126C12.6024 18.687 2.21555 18.687 1.96424 18.6126C1.74065 18.5464 1.46771 18.276 1.40093 18.0545C1.32552 17.8045 1.32552 2.17959 1.40093 1.92961C1.46392 1.72065 1.73754 1.43857 1.93874 1.37511C2.04074 1.34293 3.0845 1.32746 5.35542 1.3245L8.62525 1.32025L8.63783 3.1234ZM11.436 4.93768C10.6726 4.94543 10.2975 4.93401 10.216 4.90057C9.97347 4.80105 9.95601 4.7075 9.94456 3.4465L9.93412 2.29999L11.2362 3.61327L12.5383 4.92654L11.436 4.93768ZM4.37866 8.25143C4.14182 8.41111 4.06346 8.55181 4.06346 8.8173C4.06346 9.10777 4.18293 9.29751 4.43803 9.41232C4.60072 9.48549 4.76977 9.48991 7.40899 9.48991C10.0482 9.48991 10.2173 9.48549 10.3799 9.41232C10.635 9.29751 10.7545 9.10777 10.7545 8.8173C10.7545 8.55181 10.6762 8.41111 10.4393 8.25143L10.3002 8.15762H7.40899H4.51778L4.37866 8.25143ZM4.49442 12.5525C4.28641 12.6268 4.22182 12.6838 4.11888 12.8837C3.96213 13.1881 4.06409 13.5218 4.37866 13.7338L4.51778 13.8276H7.40899H10.3002L10.4393 13.7338C10.6478 13.5933 10.7433 13.4401 10.7621 13.2158C10.7831 12.9671 10.657 12.727 10.4389 12.6001C10.2947 12.5162 10.2327 12.5142 7.47211 12.5052C5.18718 12.4977 4.62261 12.5067 4.49442 12.5525Z" fill="white"/>
</svg>
