<svg width="15" height="17" viewBox="0 0 15 17" fill="none" xmlns="http://www.w3.org/2000/svg">
<path fill-rule="evenodd" clip-rule="evenodd" d="M4.03822 0.0450373C3.42079 0.213014 2.90221 0.632472 2.63695 1.17842C2.43422 1.59566 2.36877 1.89447 2.37046 2.39488C2.3727 3.05351 2.5486 3.55159 2.97628 4.11018L3.17407 4.36855L2.47926 4.36916C2.02216 4.36959 1.70263 4.38706 1.54533 4.42022C0.96379 4.54288 0.456026 4.94141 0.194877 5.48008C-0.00554557 5.89358 0.000584709 5.73023 7.74466e-06 10.6687C-0.000352858 13.7688 0.0118716 15.2966 0.0382677 15.4414C0.166606 16.146 0.749376 16.7583 1.46798 16.9436C1.66242 16.9938 2.33257 17 7.50663 17C12.5446 17 13.3543 16.9928 13.5328 16.9466C14.2465 16.7616 14.834 16.1427 14.9617 15.4414C14.9881 15.2966 15.0004 13.7688 15 10.6687C14.9994 5.61709 15.0112 5.87801 14.7623 5.40666C14.6055 5.10975 14.276 4.77361 13.9983 4.62731C13.6104 4.42298 13.4632 4.39614 12.6296 4.37759C12.2081 4.36822 11.8633 4.35283 11.8633 4.34343C11.8633 4.33399 11.9366 4.24295 12.0262 4.14107C12.225 3.91503 12.4409 3.50911 12.5541 3.14846C12.6258 2.92002 12.6386 2.80336 12.6386 2.37694C12.6386 1.95063 12.6258 1.83379 12.5541 1.60542C12.3158 0.845843 11.8487 0.345357 11.1421 0.0924412C10.9327 0.0175138 10.8461 0.0086502 10.3307 0.00947555C9.67047 0.010588 9.46381 0.0522503 8.9965 0.278576C8.44925 0.543621 7.9523 1.00226 7.63818 1.53221C7.50725 1.75308 7.50537 1.75452 7.45478 1.67141C6.92982 0.808845 6.44704 0.393909 5.66093 0.129618C5.3463 0.0238653 5.27422 0.0134946 4.77745 0.00276508C4.37729 -0.00588316 4.18494 0.00509751 4.03822 0.0450373ZM5.38095 1.24269C5.70503 1.36872 6.01219 1.59282 6.19357 1.83562C6.5885 2.36431 6.80927 3.06934 6.90656 4.11265L6.93122 4.37709L6.21492 4.3595C5.63947 4.34537 5.44193 4.32688 5.21017 4.26556C4.60552 4.10548 4.1151 3.78183 3.81673 3.34597C3.56882 2.98379 3.48469 2.69646 3.5042 2.27887C3.52237 1.89063 3.60744 1.66344 3.81461 1.44996C4.06926 1.1875 4.22479 1.13845 4.75942 1.15187C5.08569 1.16005 5.21821 1.17939 5.38095 1.24269ZM10.903 1.26064C11.2496 1.4294 11.4312 1.7111 11.5028 2.19095C11.6091 2.90348 11.112 3.71053 10.3417 4.07609C9.84572 4.31145 9.33193 4.40368 8.51355 4.40414L8.06665 4.40443L8.09204 4.0378C8.20198 2.44928 8.7823 1.47142 9.78085 1.19213C9.9081 1.15657 10.09 1.14304 10.336 1.15094C10.6467 1.16091 10.7321 1.17745 10.903 1.26064ZM6.91096 8.86007C6.89776 10.6988 6.88698 13.0245 6.88698 14.0282V15.853L4.27571 15.8434L1.6644 15.8337L1.50808 15.7259C1.40567 15.6552 1.31751 15.5508 1.25256 15.4234L1.1534 15.2288L1.15361 10.7227C1.15372 7.57177 1.16566 6.17344 1.19324 6.07308C1.24463 5.88615 1.52528 5.61149 1.71626 5.56121C1.80544 5.53775 2.78191 5.52292 4.39575 5.52056L6.93494 5.51686L6.91096 8.86007ZM13.2598 5.55856C13.4768 5.61292 13.7512 5.87104 13.8068 6.07308C13.8343 6.17344 13.8463 7.57177 13.8464 10.7227L13.8466 15.2288L13.7474 15.4234C13.6825 15.5508 13.5943 15.6552 13.4919 15.7259L13.3356 15.8337L10.7003 15.8434L8.06506 15.853L8.08901 12.4882C8.10221 10.6375 8.11299 8.31182 8.11299 7.32007L8.11302 5.51686H10.6032C12.3751 5.51686 13.1414 5.52888 13.2598 5.55856Z" fill="#62A1FF"/>
</svg>
