<svg width="16" height="16" viewBox="0 0 16 16" fill="none" xmlns="http://www.w3.org/2000/svg">
<path fill-rule="evenodd" clip-rule="evenodd" d="M4.06785 1.48492C1.92962 2.31617 0.21654 2.99938 0.172177 3.03854C-0.0104002 3.19971 0.000112095 2.89628 0.000112095 7.99941C0.000112095 13.1025 -0.0104002 12.7991 0.172177 12.9603C0.279251 13.0548 7.86597 16 8.00237 16C8.11358 16 15.6224 13.1026 15.7686 13.0033C15.8141 12.9724 15.8847 12.9006 15.9256 12.8438L16 12.7405V7.99941V3.25831L15.9256 3.15498C15.8847 3.09817 15.8141 3.02638 15.7686 2.9955C15.6109 2.88837 8.11278 -0.00124969 7.99569 4.05488e-07C7.92664 0.000750461 6.43481 0.56473 4.06785 1.48492ZM8.91284 1.39273C9.38352 1.57499 9.77875 1.73319 9.79115 1.74432C9.80351 1.75547 9.20104 2.01681 8.45232 2.32508C7.70356 2.63338 6.37693 3.18049 5.50421 3.54092C4.63148 3.90132 3.9023 4.19637 3.88375 4.19662C3.84518 4.19709 1.94704 3.46695 1.90886 3.43694C1.87888 3.41338 7.8863 1.06836 7.98723 1.06424C8.02564 1.06267 8.44217 1.2105 8.91284 1.39273ZM12.687 2.85999C13.4738 3.1658 14.1061 3.4255 14.0919 3.43716C14.0777 3.44882 12.702 3.98736 11.0348 4.63394L8.00346 5.80949L6.67286 5.29302C5.94103 5.00897 5.32381 4.76679 5.30126 4.75485C5.27809 4.7426 5.83078 4.49821 6.5723 4.19284C7.29394 3.89563 8.62815 3.34459 9.53724 2.96828C10.4463 2.59197 11.205 2.28855 11.2232 2.29405C11.2414 2.29955 11.9001 2.55422 12.687 2.85999ZM2.26859 4.66525L3.42158 5.1126L3.4381 6.50133C3.45354 7.79714 3.45886 7.89662 3.51777 7.98866C3.71688 8.29965 4.23446 8.28205 4.42206 7.95787C4.47264 7.87046 4.48137 7.72182 4.49595 6.69759L4.51248 5.53641L5.98354 6.10792L7.45461 6.6794L7.463 10.7142L7.4714 14.749L7.3268 14.6947C7.2473 14.6649 5.8046 14.1061 4.12084 13.4529L1.05944 12.2653L1.05872 8.24161C1.05829 5.97301 1.07052 4.21788 1.08678 4.21788C1.10265 4.21788 1.63445 4.4192 2.26859 4.66525ZM14.9421 8.24161L14.9421 12.2653L14.157 12.5683C13.5815 12.7904 8.90845 14.6072 8.57017 14.7404C8.53704 14.7534 8.5304 13.9459 8.53711 10.7192L8.54551 6.68168L11.7025 5.4524C13.4389 4.77629 14.8781 4.22194 14.9008 4.2205C14.9337 4.21841 14.9422 5.04206 14.9421 8.24161Z" fill="#62A1FF"/>
</svg>
