<svg width="19" height="20" viewBox="0 0 19 20" fill="none" xmlns="http://www.w3.org/2000/svg">
<path fill-rule="evenodd" clip-rule="evenodd" d="M9.02922 0.0211316C8.35876 0.146509 7.71595 0.530975 7.32121 1.0427C6.65467 1.90672 6.53878 2.9952 7.01014 3.96409C7.10649 4.16218 7.18535 4.33267 7.18535 4.34292C7.18535 4.35318 6.57189 4.36805 5.82206 4.37595C4.46402 4.39027 4.45739 4.39074 4.10568 4.49839C2.92117 4.86106 2.03235 5.7218 1.65537 6.8714C1.60951 7.0113 1.22587 9.07157 0.802833 11.4498C-0.0667697 16.3386 -0.0831683 16.4686 0.0806619 17.1739C0.240491 17.8618 0.56058 18.4429 1.0527 18.9387C1.50967 19.3991 2.0846 19.7274 2.7522 19.9092L3.08567 20H9.5H15.9143L16.2478 19.9092C17.6183 19.536 18.6053 18.5254 18.9193 17.1739C19.0832 16.4686 19.0668 16.3386 18.1972 11.4498C17.7741 9.07157 17.3905 7.0113 17.3446 6.8714C16.9677 5.7218 16.0788 4.86106 14.8943 4.49839C14.5426 4.39074 14.536 4.39027 13.1779 4.37595C12.4281 4.36805 11.8147 4.35318 11.8147 4.34292C11.8147 4.33267 11.8935 4.16218 11.9899 3.96409C12.8668 2.1615 11.6185 0.0772069 9.61769 0.0033267C9.39113 -0.00504743 9.12632 0.00293546 9.02922 0.0211316ZM10.0689 1.27995C10.4958 1.43965 10.8923 1.86258 11.0176 2.29201C11.2638 3.13607 10.7871 4.03097 9.96085 4.27574C9.70467 4.35161 9.29388 4.35118 9.03581 4.27472C8.58473 4.14112 8.12788 3.70802 8.00313 3.29569C7.81293 2.66708 7.94781 2.07581 8.37963 1.64509C8.82573 1.20008 9.47827 1.05905 10.0689 1.27995ZM14.4158 5.60397C15.2688 5.79443 16.022 6.50454 16.2443 7.32791C16.2673 7.41298 16.6305 9.42641 17.0515 11.8022C17.5976 14.8832 17.8171 16.2067 17.8171 16.4181C17.8171 17.0251 17.5471 17.6657 17.1085 18.0997C16.7022 18.5017 16.2863 18.715 15.7343 18.8043C15.3867 18.8606 3.61333 18.8606 3.2657 18.8043C2.71372 18.715 2.29778 18.5017 1.89146 18.0997C1.45286 17.6657 1.18295 17.0251 1.18295 16.4181C1.18295 16.2067 1.40245 14.8832 1.94847 11.8022C2.3695 9.42641 2.73274 7.41298 2.75573 7.32791C2.9209 6.71605 3.39387 6.13867 3.98399 5.82859C4.54849 5.53193 4.25696 5.54704 9.47266 5.54383C13.6221 5.54125 14.1644 5.54786 14.4158 5.60397ZM5.63979 9.73841C5.33159 9.91465 5.34147 9.83334 5.34147 12.1967V14.2948L5.42974 14.4242C5.5738 14.6353 5.70024 14.7067 5.92994 14.7067C6.15042 14.7067 6.27247 14.642 6.4179 14.448C6.49111 14.3503 6.50068 14.269 6.51841 13.5925L6.53803 12.8449L7.38151 13.7162C7.84542 14.1955 8.27794 14.6151 8.34264 14.6487C8.60035 14.7825 8.95763 14.6848 9.11039 14.4387C9.20769 14.282 9.21118 13.9726 9.11722 13.8328C9.07964 13.7768 8.72224 13.3929 8.32306 12.9796C7.92388 12.5663 7.59183 12.2128 7.58519 12.1941C7.57856 12.1754 7.90116 11.824 8.30207 11.4131C8.70301 11.0022 9.06587 10.6091 9.10843 10.5394C9.31404 10.2031 9.11079 9.73704 8.72722 9.66527C8.42875 9.60943 8.34793 9.66883 7.40355 10.6385L6.51841 11.5473V10.8229C6.51841 9.98329 6.49146 9.89035 6.20405 9.73876C5.9922 9.627 5.83481 9.62692 5.63979 9.73841ZM11.3295 9.7118C10.8614 9.82481 10.3775 10.1739 10.1484 10.564C9.9146 10.9619 9.88223 11.1293 9.8636 12.0368C9.84987 12.7048 9.85909 12.9383 9.90824 13.1704C10.2271 14.6757 12.0248 15.2279 13.1035 14.1518C13.3352 13.9208 13.4764 13.6775 13.5842 13.3234C13.651 13.1041 13.6629 12.9764 13.6521 12.596C13.6406 12.1937 13.6277 12.1189 13.5514 12.0122C13.3918 11.7891 13.2587 11.7558 12.5805 11.7699C12.0436 11.781 11.9651 11.7913 11.8688 11.8631C11.5956 12.0668 11.52 12.3226 11.6536 12.5919C11.7722 12.8309 11.9014 12.9115 12.1962 12.9302C12.4663 12.9474 12.4863 12.9732 12.3835 13.1715C12.1487 13.6245 11.4276 13.6377 11.1668 13.1937C11.0712 13.031 11.0693 13.0113 11.0693 12.1957C11.0693 11.2673 11.0889 11.1761 11.3289 10.9936C11.6362 10.7598 11.9615 10.7944 12.3094 11.0981C12.6442 11.3903 12.9506 11.4097 13.2061 11.155C13.3554 11.0061 13.4076 10.825 13.3656 10.6018C13.3311 10.418 12.9367 10.0157 12.648 9.86973C12.2358 9.6614 11.7697 9.60555 11.3295 9.7118Z" fill="#62A1FF"/>
</svg>
