<svg width="14" height="16" viewBox="0 0 14 16" fill="none" xmlns="http://www.w3.org/2000/svg">
<path fill-rule="evenodd" clip-rule="evenodd" d="M6.80549 0.0210632C6.76091 0.0360268 5.28019 0.627967 3.51501 1.33645C1.00332 2.34459 0.282749 2.64599 0.200601 2.72284C-0.0144639 2.9241 -0.00930933 2.85996 0.00686752 5.12948C0.0225257 7.32538 0.0305005 7.45029 0.210553 8.31915C0.630405 10.3452 1.67704 12.2298 3.1903 13.6847C4.12399 14.5823 5.15691 15.2715 6.40025 15.8264C6.74603 15.9807 6.81272 16 7 16C7.18715 16 7.25549 15.9802 7.61092 15.8233C10.6549 14.4793 12.8626 11.9228 13.6744 8.80159C13.7875 8.36661 13.8543 8.03086 13.9265 7.53428C13.9685 7.24568 13.9814 6.78081 13.9931 5.12948C14.0093 2.85852 14.0146 2.92426 13.7982 2.72175C13.7145 2.64342 13.0069 2.34728 10.4514 1.32115C7.14154 -0.00792505 7.02039 -0.0511254 6.80549 0.0210632ZM9.86904 2.44386L12.6894 3.5774L12.6993 5.0326C12.7142 7.23438 12.6324 7.93107 12.2139 9.16438C11.4157 11.517 9.646 13.4728 7.32814 14.564L6.99659 14.7201L6.56877 14.5112C3.95911 13.2369 2.12263 10.9437 1.50739 8.19114C1.32669 7.38267 1.31165 7.16091 1.31106 5.29931L1.31055 3.57859L4.13096 2.44502C5.68218 1.82155 6.97325 1.31119 7 1.31088C7.02674 1.31057 8.31781 1.82039 9.86904 2.44386ZM9.26929 5.55135C9.19833 5.58084 8.61865 6.11652 7.72154 6.9816L6.28724 8.3647L5.5657 7.67299C4.97711 7.10875 4.81583 6.97111 4.69044 6.92606C4.29198 6.7829 3.87744 7.036 3.83326 7.44944C3.80204 7.74161 3.84376 7.7942 4.94862 8.85546C6.01577 9.88047 6.05234 9.90745 6.33247 9.87696C6.40684 9.86889 6.51865 9.8389 6.58092 9.81038C6.64583 9.78064 7.42212 9.05412 8.40045 8.1075C9.94856 6.60963 10.1104 6.4435 10.1452 6.31596C10.2883 5.79321 9.77188 5.34245 9.26929 5.55135Z" fill="#62A1FF"/>
</svg>
